<?xml version="1.0" standalone="no"?>
<!DOCTYPE svg PUBLIC "-//W3C//DTD SVG 20010904//EN"
 "http://www.w3.org/TR/2001/REC-SVG-20010904/DTD/svg10.dtd">
<svg version="1.0" xmlns="http://www.w3.org/2000/svg"
 width="1432.000000pt" height="1432.000000pt" viewBox="0 0 1432.000000 1432.000000"
 preserveAspectRatio="xMidYMid meet">

<g transform="translate(0.000000,1432.000000) scale(0.100000,-0.100000)"
fill="#000000" stroke="none">
<path d="M7740 9970 c-294 -78 -482 -301 -456 -542 9 -91 48 -167 120 -236
141 -135 352 -181 541 -118 259 87 483 345 502 576 8 90 -12 144 -73 200 -95
88 -230 131 -424 136 -111 3 -148 1 -210 -16z m388 -224 c35 -16 74 -43 88
-60 22 -25 25 -37 22 -77 -20 -206 -298 -394 -515 -349 -105 22 -197 85 -222
153 -40 105 44 249 182 312 94 44 154 55 272 52 96 -2 118 -6 173 -31z"/>
<path d="M5726 9444 c-271 -60 -475 -254 -602 -572 l-43 -107 -80 -7 c-199
-17 -330 -83 -433 -219 -46 -60 -100 -170 -118 -239 -33 -130 -24 -117 -82
-123 -166 -20 -338 -199 -379 -394 -13 -64 -7 -350 11 -508 110 -964 561
-1783 1278 -2323 466 -351 1020 -559 1632 -613 198 -17 616 -7 795 21 881 133
1577 574 2061 1302 348 524 548 1181 571 1873 7 224 -3 302 -53 405 -43 91
-117 164 -210 209 -38 19 -72 39 -76 45 -4 6 -8 31 -8 56 -1 184 -114 388
-263 474 -54 32 -62 52 -54 131 13 125 -41 253 -145 350 -114 106 -267 160
-432 153 -139 -6 -232 -46 -363 -154 -28 -23 -45 -27 -135 -34 -271 -22 -489
-182 -540 -395 l-12 -50 -105 -1 c-74 0 -119 -5 -149 -17 -42 -16 -45 -16 -82
3 -21 11 -78 31 -126 45 -48 14 -88 26 -89 28 -1 1 -14 36 -29 78 -80 223
-234 374 -436 425 -104 26 -269 16 -390 -25 -52 -18 -105 -39 -118 -47 -22
-15 -26 -13 -92 49 -80 76 -171 130 -278 165 -100 32 -317 40 -426 16z m344
-231 c193 -53 312 -197 366 -441 28 -130 47 -152 129 -152 39 0 52 5 77 31 29
29 30 33 24 91 -3 34 -21 106 -40 161 l-34 99 73 34 c94 45 184 60 273 44 135
-23 239 -96 293 -205 37 -76 35 -97 -9 -106 -18 -4 -34 -8 -36 -10 -2 -2 10
-52 27 -110 l30 -107 31 9 c59 17 241 7 263 -14 3 -3 -11 -37 -30 -76 -47 -95
-61 -164 -54 -286 6 -113 29 -191 83 -280 19 -32 34 -60 34 -64 -1 -3 -26 -24
-56 -45 -55 -40 -128 -136 -140 -183 -4 -13 -9 -23 -13 -21 -3 2 -51 26 -106
54 -55 29 -138 64 -185 80 -76 25 -99 28 -220 28 -120 0 -144 -3 -216 -27
-192 -64 -333 -206 -379 -382 -53 -205 35 -480 258 -800 94 -135 102 -150 82
-153 -32 -4 -423 54 -593 88 -81 16 -150 30 -154 30 -17 0 -5 22 67 127 194
287 287 547 272 763 -7 101 -24 156 -73 251 -20 38 -35 72 -32 74 2 3 159 66
349 141 189 74 354 145 366 156 38 35 48 83 29 133 -25 65 -97 113 -230 154
-155 48 -360 64 -465 37 -52 -13 -52 -13 -47 8 16 66 36 207 36 258 0 74 -21
121 -69 154 -75 51 -175 24 -286 -78 -124 -112 -251 -322 -262 -431 -5 -47 5
-124 21 -167 5 -13 -9 -15 -92 -16 -162 -2 -295 -52 -434 -162 -176 -140 -329
-399 -401 -678 -12 -46 -24 -84 -27 -84 -14 0 -126 103 -179 164 -122 141
-184 275 -185 401 -1 68 3 88 25 130 27 53 86 98 147 110 31 6 32 6 32 -29 0
-90 111 -131 182 -67 32 28 32 28 39 158 13 217 52 337 138 423 107 107 248
131 476 81 55 -12 90 -15 113 -9 59 16 90 99 60 163 -12 27 -54 55 -82 55 -30
0 -26 22 18 116 74 155 153 254 257 320 118 74 311 98 459 57z m3128 -88 c78
-19 131 -45 183 -92 64 -58 73 -83 66 -184 -11 -150 28 -231 151 -312 110 -73
149 -141 163 -285 14 -154 59 -222 188 -287 115 -57 161 -136 161 -269 0 -93
-31 -179 -102 -287 -196 -301 -636 -627 -1079 -803 -115 -46 -315 -104 -324
-94 -6 6 93 390 103 399 4 3 189 52 412 109 223 57 408 106 412 109 10 9 -24
211 -36 211 -5 0 -168 -41 -363 -92 -194 -50 -356 -88 -359 -85 -8 7 101 427
113 437 4 4 195 36 423 70 228 34 416 63 417 65 7 5 -32 225 -39 225 -5 0
-171 -27 -370 -60 -198 -33 -363 -59 -365 -57 -3 4 162 678 183 748 3 12 -16
21 -95 42 -55 15 -106 27 -113 27 -9 0 -41 -116 -103 -365 -49 -201 -92 -365
-95 -365 -3 0 -140 106 -305 235 -165 129 -303 235 -307 235 -3 0 -37 -39 -73
-86 -57 -72 -65 -88 -54 -99 8 -7 160 -126 339 -265 179 -139 329 -256 334
-260 10 -10 -103 -460 -116 -460 -5 0 -147 95 -314 210 -167 116 -306 210
-308 210 -2 0 -27 -41 -56 -91 -46 -79 -51 -94 -38 -103 8 -6 159 -111 335
-234 l320 -224 -33 -136 c-52 -218 -102 -413 -107 -418 -7 -7 -138 -33 -204
-40 l-63 -7 24 59 c40 98 59 184 59 274 1 73 -4 95 -30 157 -17 39 -52 104
-79 145 -69 106 -249 281 -364 356 -147 95 -134 79 -106 139 21 44 37 60 95
98 94 61 126 113 126 205 0 62 -3 71 -57 160 -66 109 -83 166 -76 253 7 80 43
152 103 205 59 52 101 66 174 58 165 -19 166 -19 209 3 54 28 87 79 107 166
27 120 68 171 185 230 43 22 80 30 176 40 139 15 184 31 283 104 79 58 98 68
148 80 55 13 71 12 141 -4z m-3340 -854 c-12 -167 -13 -175 -41 -214 l-30 -40
-13 24 c-20 36 -54 147 -54 178 0 16 10 47 23 70 22 41 118 164 124 158 1 -2
-3 -81 -9 -176z m514 -147 c38 -9 66 -20 61 -24 -4 -4 -91 -39 -193 -78 -102
-39 -193 -74 -204 -78 -16 -6 -17 -4 -8 13 22 41 106 125 146 145 34 18 75 31
119 37 4 0 40 -6 79 -15z m-823 -299 c177 -42 338 -191 391 -363 57 -183 -11
-403 -219 -712 -50 -74 -99 -145 -108 -157 l-18 -22 -120 45 c-142 52 -434
195 -593 290 -105 63 -113 70 -107 93 4 14 8 27 10 29 2 2 36 6 77 9 80 6 167
-11 240 -48 24 -12 89 -69 149 -130 91 -94 110 -109 138 -109 68 0 121 48 121
111 0 80 -182 271 -322 338 -96 46 -161 61 -258 61 -53 0 -70 3 -70 14 0 21
57 158 73 173 22 22 142 27 224 10 143 -31 297 -130 396 -255 55 -68 90 -87
145 -79 46 8 92 55 92 95 0 57 -119 202 -238 291 -119 88 -317 171 -409 171
-34 0 -28 14 20 53 124 99 239 126 386 92z m1431 -316 c132 -36 306 -128 585
-307 209 -135 302 -221 348 -319 18 -39 22 -65 21 -138 -1 -106 -31 -208 -94
-322 l-41 -73 -110 0 -110 0 40 48 c104 122 126 298 58 445 -38 82 -98 141
-185 184 -74 37 -79 38 -186 38 -102 0 -116 -2 -171 -29 -75 -37 -159 -120
-190 -188 -70 -153 -41 -343 68 -457 l42 -43 -61 4 c-60 4 -63 5 -113 60 -367
401 -477 650 -391 880 50 134 203 237 355 238 33 0 94 -9 135 -21z m-2641
-472 c421 -402 993 -677 1686 -811 167 -32 386 -62 595 -82 228 -21 849 -30
1065 -15 824 58 1535 284 2022 644 60 44 166 138 237 208 71 71 130 129 131
129 8 0 -43 -276 -74 -400 -288 -1148 -1204 -1973 -2371 -2135 -159 -22 -523
-31 -690 -16 -1355 120 -2402 1039 -2654 2331 -30 157 -39 220 -30 220 4 0 41
-33 83 -73z m3044 -201 c44 -18 94 -77 107 -126 14 -54 -8 -135 -47 -172 -34
-33 -92 -58 -133 -58 -36 0 -96 23 -123 48 -52 47 -72 147 -43 215 36 86 150
131 239 93z"/>
</g>
</svg>
