<svg width="32" height="32" viewBox="0 0 32 32" fill="none" xmlns="http://www.w3.org/2000/svg">
<circle cx="16" cy="16" r="16" fill="#262638" fill-opacity="0.85"/>
<path fill-rule="evenodd" clip-rule="evenodd" d="M15.2941 10.8663C12.8487 10.8663 10.8663 12.8487 10.8663 15.2941C10.8663 17.7395 12.8487 19.7219 15.2941 19.7219C17.7395 19.7219 19.7219 17.7395 19.7219 15.2941C19.7219 12.8487 17.7395 10.8663 15.2941 10.8663ZM9.83954 15.2941C9.83954 12.2816 12.2816 9.83954 15.2941 9.83954C18.3065 9.83954 20.7486 12.2816 20.7486 15.2941C20.7486 18.3065 18.3065 20.7486 15.2941 20.7486C12.2816 20.7486 9.83954 18.3065 9.83954 15.2941Z" fill="white"/>
<path fill-rule="evenodd" clip-rule="evenodd" d="M18.4248 18.4252C18.6253 18.2247 18.9503 18.2247 19.1508 18.4252L22.0096 21.2841C22.2101 21.4845 22.2101 21.8096 22.0096 22.0101C21.8092 22.2106 21.4841 22.2106 21.2836 22.0101L18.4248 19.1512C18.2243 18.9507 18.2243 18.6257 18.4248 18.4252Z" fill="white"/>
</svg>
