<svg width="18" height="18" viewBox="0 0 18 18" fill="none" xmlns="http://www.w3.org/2000/svg">
<path fill-rule="evenodd" clip-rule="evenodd" d="M7.96875 1.5C4.39616 1.5 1.5 4.39616 1.5 7.96875C1.5 11.5413 4.39616 14.4375 7.96875 14.4375C11.5413 14.4375 14.4375 11.5413 14.4375 7.96875C14.4375 4.39616 11.5413 1.5 7.96875 1.5ZM0 7.96875C0 3.56773 3.56773 0 7.96875 0C12.3698 0 15.9375 3.56773 15.9375 7.96875C15.9375 12.3698 12.3698 15.9375 7.96875 15.9375C3.56773 15.9375 0 12.3698 0 7.96875Z" fill="#262638"/>
<path fill-rule="evenodd" clip-rule="evenodd" d="M12.5425 12.5432C12.8354 12.2503 13.3103 12.2503 13.6032 12.5432L17.7798 16.7198C18.0727 17.0127 18.0727 17.4875 17.7798 17.7804C17.4869 18.0733 17.012 18.0733 16.7191 17.7804L12.5425 13.6038C12.2496 13.3109 12.2496 12.836 12.5425 12.5432Z" fill="#262638"/>
</svg>
